<svg width="106" height="106" viewBox="0 0 106 106" fill="none" xmlns="http://www.w3.org/2000/svg">
<g clip-path="url(#clip0_30_795)">
<path d="M90.9375 0H93.375L93.4375 0.125L93.3125 0.1875L93.875 0.8125L95.25 2.1875L95.75 2.625L96.5 3.375L97 3.8125L103.375 10.1875L103.812 10.6875L104.375 11.25L104.812 11.75L105.125 12.125V12.25H105.25L105.688 12.8125L106 13.125V17.75H105.812L105.375 18.1875L104.938 18.8125L104.188 19.6875L103.625 20.25L103.188 20.75L102.625 21.375L98.0625 25.9375L97.8125 26.25L97.5625 26.5H97.4375L97.3125 26.75L96.875 27.125L96.8125 27.25H96.6875L96.5625 27.5L95.625 28.375L95.3125 28.75L94.8125 29.1875L94.0625 29.875L93.375 30.4375L93 30.75L92.25 31.125L91.6875 31L91.125 30.625L90.1875 29.6875L89.625 29L89.375 28.5625L89.625 28.125L90.1875 27.5L90.5625 27L90.8125 26.6875L91.125 26.375L92.9375 24.4375L96.0625 21.3125L96.125 21.1875H96.25L96.375 20.9375L96.625 20.6875H96.75V20.5625L97.1875 20.1875L99.1875 18.1875L99.625 17.6875L99 17.75H88.6875L83.5 17.6875H66.625L53.25 17.75L49.75 17.875L47.875 18L45.875 18.3125L43.75 18.8125L42.0625 19.3125L39.8125 20.125L38.75 20.5625L36.75 21.5625L35.125 22.4375L34.0625 23.125L31.9375 24.625L30.8125 25.5L30.0625 26.125L29.5625 26.5625L29.375 26.625V26.75L28.875 27.1875L27.875 28.125L27.125 28.875L26.5625 29.5625L26.0625 30.125L25.4375 30.9375L24.8125 31.6875L23.9375 32.875L23.1875 34.0625L22.8125 34.6875L22.4375 35.375L21.3125 37.5L20.3125 39.6875L19.6875 41.3125L19.0625 43.125L18.5625 45.3125L18.0625 47.875L17.8125 50L17.75 51.25V54.9375L17.875 56.5625L18.125 58.375L18.5625 60.5L19.0625 62.625L19.5625 64.25L20.25 66.125L20.9375 67.75L21.6875 69.3125L22.3125 70.5L23.1875 71.875L24 73.0625L24.5625 73.8125L25.1875 74.625L25.9375 75.6875L26.375 76.375L26.6875 76.9375L26.75 77.3125L26.3125 78.0625L25.5625 78.875L25.125 79.3125L24.5625 79.75L24.0625 79.6875L23.4375 79.3125L22.625 78.625L22 78L21.4375 77.3125L20.4375 76L18.8125 73.5625L18.0625 72.25L17 70.1875L16.1875 68.375L15.5625 66.6875L14.8125 64.4375L14 61.375L13.5625 59.125L13.25 56.75L13.0625 54.5V51.5625L13.25 49L13.5625 46.6875L14 44.3125L14.4375 42.5L15.25 39.9375L15.6875 38.75L16.375 37.125L17.125 35.5L17.75 34.3125L18.375 33.1875L18.875 32.375L19.75 31L20.5625 29.8125L20.9375 29.3125L21.4375 28.625L22 27.875L22.125 27.6875H22.25L22.375 27.4375L23.375 26.1875H23.5L23.625 25.9375L24.1875 25.375L24.625 24.875L26.0625 23.4375L26.5625 23L27.375 22.25L28.4375 21.4375L29.0625 20.9375L29.9375 20.3125L31.25 19.4375L32.375 18.75L33.6875 18L36.125 16.75L37.875 15.9375L39.5 15.3125L41.4375 14.6875L43.6875 14.125L46.3125 13.625L48.25 13.375L50.9375 13.1875L52.625 13.125L55.6875 13.0625H84.4375L93.875 13H98.0625L98.625 12.9375H99.25L98.75 12.25L97.9375 11.5L97.0625 10.5625L96.375 9.8125L95.4375 8.8125L95.25 8.625V8.5H95.125L94.6875 8L93.9375 7.25L93.5 6.75L92.4375 5.6875L92 5.1875L91.1875 4.375L90.75 3.875L90.125 3.1875L89.6875 2.5625L89.5 2.1875L90.125 1.25L90.625 0.625L90.9375 0Z" fill="#94BF3C"/>
<path d="M81.75 26.25L82.375 26.4375L82.9375 26.875L84.125 28.0625L84.6875 28.8125L85.375 29.8125L85.8125 30.4375L86.5 31.5L87.375 32.9375L88.0625 34.125L88.8125 35.5625L89.375 36.8125L90.25 39.0625L90.875 40.9375L91.625 43.5625L92 45.25L92.375 47.625L92.625 49.875L92.75 52.25V53.625L92.6875 55.25L92.4375 57.625L91.875 61.0625L91.5 62.8125L90.75 65.4375L90.125 67.1875L89.625 68.4375L88.8125 70.1875L88.3125 71.1875L87.4375 72.8125L86.5 74.3125L85.875 75.25L85.25 76.125L84.8125 76.75L84 77.8125L83.125 78.875L82.4375 79.625L82.375 79.75H82.25L82.125 80L80.3125 81.8125L79.8125 82.25L79.3125 82.75L78.8125 83.1875L77.8125 84L77.1875 84.4375L76.3125 85.0625L75.0625 85.9375L73.1875 87.0625L72.1875 87.625L70 88.75L68.75 89.3125L67.9375 89.6875L65.0625 90.75L62.375 91.5L60.5625 91.875L58 92.25L55.25 92.5L52.5625 92.625L49.4375 92.6875L24.75 92.75H7.6875L6.125 92.6875L5.9375 92.75L6.5 93.375L7.5 94.375L8 94.8125L9.625 96.4375L10.125 96.875L10.75 97.5L11.25 97.9375L12.3125 98.9375L13 99.625L13.4375 100.125L14.125 100.812L14.5625 101.312L15.125 101.938L15.8125 102.75L16.1875 103.5L16.125 103.938L15.75 104.625L15.3125 105.125L15 105.438L14.6875 106H12.8125L12.4375 105.438L11.375 104.438L1.875 94.9375L1.4375 94.4375L0.5625 93.5L0 92.9375V88.125L0.6875 87.4375L1.0625 86.9375L1.375 86.625L1.9375 86L2.9375 84.9375L3.375 84.4375H3.5L3.625 84.1875L4.1875 83.625L4.625 83.125L5.1875 82.5625L5.25 82.4375H5.375L5.5 82.1875L11.75 75.9375L12.4375 75.375L12.9375 75L13.5 74.8125L14.25 75L14.75 75.3125L15.625 76L16.0625 76.5625L16.1875 76.9375L16.125 77.5L15.75 78.125L14.875 79.1875L14.1875 80L13.625 80.6875L13.0625 81.25L13 81.375H12.875L12.75 81.625L9.125 85.25H9L8.875 85.5L8.125 86.25L7.4375 86.8125L6.625 87.4375L6.125 87.9375L7.25 88L13.4375 88.125L37.5 88.1875H45.25L51.5625 88.125L54.875 88L57.125 87.8125L59.375 87.5L61.8125 87L63.625 86.4375L65.4375 85.8125L67 85.125L68.5625 84.375L70 83.625L71.5 82.75L72.75 81.9375L73.625 81.3125L74.6875 80.5L75.3125 80L76.1875 79.25L76.8125 78.6875L77.3125 78.25L79 76.5625L79.5625 75.875L80.0625 75.375L80.625 74.6875L81 74.25L81.375 73.6875H81.5L81.625 73.4375L82.0625 72.75L82.9375 71.4375L84 69.625L84.9375 67.75L85.6875 65.875L86.4375 63.625L86.875 62.125L87.375 59.75L87.75 57.6875L87.9375 56.1875L88 55.25V50.75L87.75 48.1875L87.4375 46.1875L87.125 44.8125L86.625 42.9375L85.875 40.6875L85.1875 38.875L84.375 37.0625L83.5 35.375L82.5625 33.8125L81.375 32.0625L80.5625 30.9375L79.6875 29.625L79.1875 28.8125V28.4375L79.75 27.6875H79.875L80 27.4375L80.5 26.9375L81.5 26.3125L81.75 26.25Z" fill="#94BF3C"/>
<path d="M47.4375 32.3125H65.6875L67.1875 32.375L67.6875 32.625L68.25 33.125L68.6875 34L68.75 34.375V35.5625L68.4375 36.375L68 36.9375L67.5 37.25L66.875 37.375L66.0625 37.4375L62.875 37.5H58.125L57.5 37.4375L58.4375 39.25L58.875 40.3125L59.4375 42.3125L59.75 42.4375L60.9375 42.5L65.8125 42.5625L66.9375 42.625L67.75 42.875L68.125 43.1875L68.625 44.0625L68.75 44.6875V45.6875L68.5 46.375L68.0625 47.0625L67.625 47.5L67.375 47.625L67 47.6875L63.75 47.8125L59.75 47.9375L59.5625 48L59.3125 49.0625L58.875 50.375L58.25 51.6875L57.6875 52.625L57 53.5L56.4375 54.1875L55.625 55.1875L55.375 55.3125L55.3125 55.5L54.3125 56.25L53.5 56.75L52.1875 57.375L51.0625 57.75L49.75 58L48.125 58.1875L47.4375 58.25L47.6875 58.6875L48.25 59.3125L48.6875 59.8125L49.4375 60.625L50 61.3125L50.875 62.25L51.3125 62.75L52.0625 63.625L52.625 64.3125L53.25 65L53.8125 65.6875L54.6875 66.625L55.375 67.4375L55.9375 68.125L56.625 69L57.25 69.9375L57.5625 70.5625L57.625 70.75V71.3125L57.25 72.0625L56.625 72.875L56 73.5L55.5 73.8125L55.125 73.75L54.4375 73.375L53.75 72.8125L52.9375 72.0625L51.5625 70.5625L50.9375 69.875L50.375 69.1875L49.6875 68.4375L49.125 67.75L48.375 66.9375L47.8125 66.25L47 65.375L46.4375 64.6875L45.875 64.0625L45.3125 63.375L44.75 62.75L44.1875 62.0625L43.625 61.4375L43.0625 60.75L42.3125 59.9375L41.75 59.25L41 58.4375L40.25 57.4375L39.625 56.5L39.1875 55.6875L39.125 55.3125L40 53.6875L40.375 53.25L40.6875 53.0625L41.1875 52.9375L42.9375 52.8125L48.5 52.75L49.8125 52.6875L50.625 52.4375L51.25 52.125L52.0625 51.5625L52.8125 50.875L53.25 50.4375L53.8125 49.75L54.8125 48.25L54.875 48L53.125 47.9375L42.375 47.875L40.8125 47.75L40.375 47.5625L40 47.125L39.5 46.125L39.25 45.4375V44.75L39.5625 43.9375L40.1875 43.0625L40.5 42.8125L41.125 42.5625H54.75L54.125 41.3125L53.375 40.0625L52.875 39.4375L52.3125 38.875L51.375 38.25L50.6875 37.9375L49.875 37.6875L49.0625 37.5625H41.75L40.875 37.5L40.3125 37.0625L39.8125 36.375L39.3125 35.375L39.1875 35L39.25 34.5L39.5625 33.75L40.0625 32.75L40.25 32.4375L40.375 32.375L47.4375 32.3125Z" fill="#94BF3C"/>
<path d="M0.375 93.875L0.625 93.9375L0.4375 94L0.375 93.875Z" fill="#94BF3C"/>
</g>
<defs>
<clipPath id="clip0_30_795">
<rect width="106" height="106" fill="white"/>
</clipPath>
</defs>
</svg>
