<?xml version="1.0" encoding="UTF-8"?>
<svg width="10px" height="6px" viewBox="0 0 10 6" version="1.1" xmlns="http://www.w3.org/2000/svg" xmlns:xlink="http://www.w3.org/1999/xlink">
    <!-- Generator: Sketch 55.2 (78181) - https://sketchapp.com -->
    <title>גרירה</title>
    <desc>Created with Sketch.</desc>
    <g id="UI" stroke="none" stroke-width="1" fill="none" fill-rule="evenodd">
        <g id="גרירה" transform="translate(5.000000, 3.000000) rotate(-90.000000) translate(-5.000000, -3.000000) translate(-2.000000, -4.000000)">
            <polygon id="Path" points="0 0 14 0 14 14 0 14"></polygon>
            <path d="M6.41666667,10.5 C6.41666667,11.1416667 5.89166667,11.6666667 5.25,11.6666667 C4.60833333,11.6666667 4.08333333,11.1416667 4.08333333,10.5 C4.08333333,9.85833333 4.60833333,9.33333333 5.25,9.33333333 C5.89166667,9.33333333 6.41666667,9.85833333 6.41666667,10.5 Z M5.25,5.83333333 C4.60833333,5.83333333 4.08333333,6.35833333 4.08333333,7 C4.08333333,7.64166667 4.60833333,8.16666667 5.25,8.16666667 C5.89166667,8.16666667 6.41666667,7.64166667 6.41666667,7 C6.41666667,6.35833333 5.89166667,5.83333333 5.25,5.83333333 Z M5.25,2.33333333 C4.60833333,2.33333333 4.08333333,2.85833333 4.08333333,3.5 C4.08333333,4.14166667 4.60833333,4.66666667 5.25,4.66666667 C5.89166667,4.66666667 6.41666667,4.14166667 6.41666667,3.5 C6.41666667,2.85833333 5.89166667,2.33333333 5.25,2.33333333 Z M8.75,4.66666667 C9.39166667,4.66666667 9.91666667,4.14166667 9.91666667,3.5 C9.91666667,2.85833333 9.39166667,2.33333333 8.75,2.33333333 C8.10833333,2.33333333 7.58333333,2.85833333 7.58333333,3.5 C7.58333333,4.14166667 8.10833333,4.66666667 8.75,4.66666667 Z M8.75,5.83333333 C8.10833333,5.83333333 7.58333333,6.35833333 7.58333333,7 C7.58333333,7.64166667 8.10833333,8.16666667 8.75,8.16666667 C9.39166667,8.16666667 9.91666667,7.64166667 9.91666667,7 C9.91666667,6.35833333 9.39166667,5.83333333 8.75,5.83333333 Z M8.75,9.33333333 C8.10833333,9.33333333 7.58333333,9.85833333 7.58333333,10.5 C7.58333333,11.1416667 8.10833333,11.6666667 8.75,11.6666667 C9.39166667,11.6666667 9.91666667,11.1416667 9.91666667,10.5 C9.91666667,9.85833333 9.39166667,9.33333333 8.75,9.33333333 Z" id="Shape" fill="#243748" fill-rule="nonzero"></path>
        </g>
    </g>
</svg>