<?xml version="1.0" encoding="UTF-8"?>
<svg width="18px" height="15px" viewBox="0 0 18 15" version="1.1" xmlns="http://www.w3.org/2000/svg" xmlns:xlink="http://www.w3.org/1999/xlink">
    <!-- Generator: Sketch 55.2 (78181) - https://sketchapp.com -->
    <title>יכול להיות שתיווצר בעיה</title>
    <desc>Created with Sketch.</desc>
    <g id="UI" stroke="none" stroke-width="1" fill="none" fill-rule="evenodd">
        <g id="יכול-להיות-שתיווצר-בעיה" fill="#FFA300" fill-rule="nonzero">
            <path d="M8.42827697,4.6875 L9.53572931,4.6875 C9.64179517,4.6875 9.72602394,4.76953125 9.72290436,4.86914062 L9.48893555,10.6113281 C9.48581597,10.7050781 9.4015872,10.78125 9.30176051,10.78125 L8.66224578,10.78125 C8.56241909,10.78125 8.47819032,10.7080078 8.47507073,10.6113281 L8.24110193,4.86914062 C8.23798235,4.76953125 8.32221112,4.6875 8.42827697,4.6875 Z M8.98356294,11.3671875 C8.50002741,11.3671875 8.1100794,11.7333984 8.1100794,12.1875 C8.1100794,12.6416016 8.50002741,13.0078125 8.98356294,13.0078125 C9.46709846,13.0078125 9.85704647,12.6416016 9.85704647,12.1875 C9.85704647,11.7333984 9.46709846,11.3671875 8.98356294,11.3671875 Z M17.7651921,12.890625 L10.2813099,0.703125 C9.70730644,-0.234375 8.26293902,-0.234375 7.68581597,0.703125 L0.20193382,12.890625 C-0.372069646,13.8251953 0.345434686,15 1.49968079,15 L16.4705647,15 C17.6185716,15 18.3423151,13.828125 17.7651921,12.890625 Z M16.4705647,14.0625 L1.4965612,14.0625 C1.11285236,14.0625 0.872644392,13.6728516 1.06293902,13.359375 L8.54994075,1.171875 C8.74023538,0.861328125 9.22377091,0.858398437 9.41406554,1.171875 L16.9010673,13.359375 C17.0944815,13.6699219 16.8542735,14.0625 16.4705647,14.0625 Z" id="Shape-Copy"></path>
        </g>
    </g>
</svg>