<?xml version="1.0" encoding="UTF-8"?>
<svg width="25px" height="25px" viewBox="0 0 25 25" version="1.1" xmlns="http://www.w3.org/2000/svg" xmlns:xlink="http://www.w3.org/1999/xlink">
    <!-- Generator: Sketch 61.2 (89653) - https://sketch.com -->
    <title>Shape</title>
    <desc>Created with Sketch.</desc>
    <g id="UI" stroke="none" stroke-width="1" fill="none" fill-rule="evenodd">
        <g id="חודשי" transform="translate(-333.000000, -16.000000)" fill="#0091FF" fill-rule="nonzero">
            <g id="Group-65" transform="translate(315.000000, 0.000000)">
                <g id="apps-24px" transform="translate(18.000000, 16.000000)">
                    <path d="M0.992063492,6.74603175 L6.74603175,6.74603175 L6.74603175,0.992063492 L0.992063492,0.992063492 L0.992063492,6.74603175 Z M9.62301587,24.0079365 L15.3769841,24.0079365 L15.3769841,18.2539683 L9.62301587,18.2539683 L9.62301587,24.0079365 Z M0.992063492,24.0079365 L6.74603175,24.0079365 L6.74603175,18.2539683 L0.992063492,18.2539683 L0.992063492,24.0079365 Z M0.992063492,15.3769841 L6.74603175,15.3769841 L6.74603175,9.62301587 L0.992063492,9.62301587 L0.992063492,15.3769841 Z M9.62301587,15.3769841 L15.3769841,15.3769841 L15.3769841,9.62301587 L9.62301587,9.62301587 L9.62301587,15.3769841 Z M18.2539683,0.992063492 L18.2539683,6.74603175 L24.0079365,6.74603175 L24.0079365,0.992063492 L18.2539683,0.992063492 Z M9.62301587,6.74603175 L15.3769841,6.74603175 L15.3769841,0.992063492 L9.62301587,0.992063492 L9.62301587,6.74603175 Z M18.2539683,15.3769841 L24.0079365,15.3769841 L24.0079365,9.62301587 L18.2539683,9.62301587 L18.2539683,15.3769841 Z M18.2539683,24.0079365 L24.0079365,24.0079365 L24.0079365,18.2539683 L18.2539683,18.2539683 L18.2539683,24.0079365 Z" id="Shape"></path>
                </g>
            </g>
        </g>
    </g>
</svg>