<?xml version="1.0" encoding="UTF-8"?>
<svg width="24px" height="24px" viewBox="0 0 24 24" version="1.1" xmlns="http://www.w3.org/2000/svg" xmlns:xlink="http://www.w3.org/1999/xlink">
    <!-- Generator: Sketch 55.2 (78181) - https://sketchapp.com -->
    <title>צריך עזרה</title>
    <desc>Created with Sketch.</desc>
    <g id="צריך-עזרה" stroke="none" stroke-width="1" fill="none" fill-rule="evenodd">
        <g>
            <polygon id="Path" points="0 0 24 0 24 24 0 24"></polygon>
            <path d="M11.0526316,22 L11.0526316,18.812749 C6.57,18.5825587 3,14.8995131 3,10.4108012 C3,5.77158035 6.81157895,2 11.5,2 C16.1884211,2 20,5.77158035 20,10.4108012 C20,14.7932714 16.9221053,19.2023019 12.3321053,21.3891102 L11.0526316,22 Z M11.5,3.770695 C7.79578947,3.770695 4.78947368,6.74546259 4.78947368,10.4108012 C4.78947368,14.0761399 7.79578947,17.0509075 11.5,17.0509075 L12.8421053,17.0509075 L12.8421053,19.0872067 C16.0989474,17.0509075 18.2105263,13.7042939 18.2105263,10.4108012 C18.2105263,6.74546259 15.2042105,3.770695 11.5,3.770695 Z M10.6052632,13.9521912 L12.3947368,13.9521912 L12.3947368,15.7228862 L10.6052632,15.7228862 L10.6052632,13.9521912 Z M12.3947368,12.62417 L10.6052632,12.62417 C10.6052632,9.74679062 13.2894737,9.96812749 13.2894737,8.19743249 C13.2894737,7.22355024 12.4842105,6.42673749 11.5,6.42673749 C10.5157895,6.42673749 9.71052632,7.22355024 9.71052632,8.19743249 L7.92105263,8.19743249 C7.92105263,6.24081452 9.52263158,4.6560425 11.5,4.6560425 C13.4773684,4.6560425 15.0789474,6.24081452 15.0789474,8.19743249 C15.0789474,10.4108012 12.3947368,10.6321381 12.3947368,12.62417 Z" id="Shape" fill="#243748" fill-rule="nonzero"></path>
        </g>
    </g>
</svg>