<?xml version="1.0" encoding="UTF-8"?>
<svg width="18px" height="15px" viewBox="0 0 18 15" version="1.1" xmlns="http://www.w3.org/2000/svg" xmlns:xlink="http://www.w3.org/1999/xlink">
    <!-- Generator: Sketch 55.2 (78181) - https://sketchapp.com -->
    <title>יש בעיה </title>
    <desc>Created with Sketch.</desc>
    <g id="UI" stroke="none" stroke-width="1" fill="none" fill-rule="evenodd">
        <g id="יש-בעיה-" fill="#FF0000" fill-rule="nonzero">
            <path d="M8.42911612,4.6875 L9.53656846,4.6875 C9.64263432,4.6875 9.72686308,4.76953125 9.7237435,4.86914062 L9.4897747,10.6113281 C9.48665511,10.7050781 9.40242634,10.78125 9.30259965,10.78125 L8.66308492,10.78125 C8.56325823,10.78125 8.47902946,10.7080078 8.47590988,10.6113281 L8.24194107,4.86914062 C8.23882149,4.76953125 8.32305026,4.6875 8.42911612,4.6875 Z M8.98440208,11.3671875 C8.50086655,11.3671875 8.11091854,11.7333984 8.11091854,12.1875 C8.11091854,12.6416016 8.50086655,13.0078125 8.98440208,13.0078125 C9.46793761,13.0078125 9.85788562,12.6416016 9.85788562,12.1875 C9.85788562,11.7333984 9.46793761,11.3671875 8.98440208,11.3671875 Z M17.7660312,12.890625 L10.282149,0.703125 C9.70814558,-0.234375 8.26377816,-0.234375 7.68665511,0.703125 L0.202772964,12.890625 C-0.371230503,13.8251953 0.34627383,15 1.50051993,15 L16.4714038,15 C17.6194107,15 18.3431542,13.828125 17.7660312,12.890625 Z M16.4714038,14.0625 L1.49740035,14.0625 C1.11369151,14.0625 0.873483536,13.6728516 1.06377816,13.359375 L8.5507799,1.171875 C8.74107452,0.861328125 9.22461005,0.858398438 9.41490468,1.171875 L16.9019064,13.359375 C17.0953206,13.6699219 16.8551127,14.0625 16.4714038,14.0625 Z" id="Shape"></path>
        </g>
    </g>
</svg>