<?xml version="1.0" encoding="UTF-8"?>
<svg width="24px" height="24px" viewBox="0 0 24 24" version="1.1" xmlns="http://www.w3.org/2000/svg" xmlns:xlink="http://www.w3.org/1999/xlink">
    <!-- Generator: Sketch 55.2 (78181) - https://sketchapp.com -->
    <title>הגדרות</title>
    <desc>Created with Sketch.</desc>
    <g id="הגדרות" stroke="none" stroke-width="1" fill="none" fill-rule="evenodd">
        <g>
            <polygon id="Path" points="0 0 24 0 24 24 0 24"></polygon>
            <path d="M3.50603978,13.4050116 L4.86434957,12.375295 C4.85560755,12.2444426 4.85107579,12.1222486 4.85107579,12 C4.85107579,11.8714426 4.856002,11.7446878 4.86583537,11.6145808 L3.46691335,10.5515812 C2.98923239,10.12927 2.844358,9.42482187 3.19093195,8.877733 L4.86735647,6.06607066 C5.20558884,5.53156054 5.85648522,5.31244741 6.48091249,5.53005436 L8.09267929,6.16123633 C8.31026609,6.02270505 8.54172616,5.89479342 8.78593374,5.7768289 L9.02908294,4.07730025 C9.15660939,3.45720605 9.69027858,3 10.3362614,3 L13.6637386,3 C14.2998967,3 14.8348593,3.44592726 14.9805015,4.11896428 L15.2146429,5.76462401 C15.4513941,5.88190626 15.6816464,6.01396347 15.9076516,6.16126729 L17.5523409,5.51777374 C18.1435148,5.31244741 18.7944112,5.53156054 19.1453295,6.08672177 L20.7963821,8.8570819 C21.1593199,9.43063406 21.0090914,10.1743978 20.4800957,10.5949884 L19.1217859,11.624705 C19.130528,11.7555574 19.1350597,11.8777514 19.1350597,12 C19.1350597,12.1252161 19.1321637,12.2470328 19.1260242,12.3657504 L20.5330866,13.4349356 C21.0107676,13.8572469 21.155642,14.561695 20.809068,15.1087839 L19.1326435,17.9204462 C18.7944112,18.4549563 18.1435148,18.6740694 17.5190875,18.4564625 L15.9059937,17.8247609 C15.6824995,17.9691734 15.4516235,18.1008263 15.2146907,18.2188065 L14.9709171,19.9226998 C14.8433906,20.542794 14.3097214,21 13.6637386,21 L10.3362614,21 C9.70010326,21 9.16514067,20.5540727 9.01949847,19.8810357 L8.78535708,18.235376 C8.54860586,18.1180937 8.31835363,17.9860365 8.0923484,17.8387327 L6.44765915,18.4822263 C5.85648522,18.6875526 5.20558884,18.4684395 4.85467054,17.9132782 L3.19546478,15.1298711 C2.8523608,14.5738357 2.97398486,13.8719795 3.50603978,13.4050116 Z M4.97984676,14.5690646 L6.20424669,16.6235289 L8.35632248,15.7807572 L8.76220553,16.0863463 C9.14926226,16.3777611 9.53582214,16.59939 9.94897542,16.7622777 L10.4415416,16.9564742 L10.5161363,17.480762 L10.7557223,19.1797753 L13.2402129,19.1797753 L13.5576505,16.948669 L14.0430475,16.7519831 C14.46398,16.5814186 14.8668367,16.352157 15.2377945,16.0728632 L15.6436775,15.7672741 L16.1167318,15.9525263 L17.7952285,16.6104527 L19.0149455,14.5647702 L17.1838072,13.1766087 L17.271559,12.6361337 C17.3012044,12.4535439 17.3152507,12.2404473 17.3152507,12 C17.3152507,11.9011897 17.3104635,11.7967728 17.3007546,11.674028 C17.2931192,11.577498 17.2882147,11.5275764 17.2645676,11.2976098 L17.2122045,10.7883806 L17.6200888,10.4791689 L19.0149455,9.42205969 L17.7957533,7.3764711 L15.6436775,8.21924279 L15.2377945,7.91365369 C14.8507377,7.62223892 14.4641779,7.40060998 14.0510246,7.23772234 L13.5584584,7.04352578 L13.4838637,6.51923797 L13.2442777,4.82022472 L10.7597871,4.82022472 L10.4423495,7.051331 L9.95695251,7.24801689 C9.49306099,7.43598864 9.0937807,7.65583388 8.77364017,7.90490194 L8.36515509,8.22270172 L7.88326816,8.03399059 L6.20477154,7.37606416 L4.98505454,9.42174668 L6.81229036,10.8069498 L6.72956817,11.3432627 C6.68943147,11.6034809 6.67088477,11.8044599 6.67088477,12 C6.67088477,12.0988103 6.67567197,12.2032272 6.68538092,12.325972 C6.69301632,12.422502 6.69792079,12.4724236 6.72156787,12.7023902 L6.77393103,13.2116194 L6.36604667,13.5208311 L4.97984676,14.5690646 Z M12,8.78426966 C13.8001515,8.78426966 15.280732,10.2241269 15.280732,12 C15.280732,13.7758731 13.8001515,15.2157303 12,15.2157303 C10.1998485,15.2157303 8.71926801,13.7758731 8.71926801,12 C8.71926801,10.2241269 10.1998485,8.78426966 12,8.78426966 Z M12,10.6044944 C11.1936277,10.6044944 10.539077,11.2410417 10.539077,12 C10.539077,12.7589583 11.1936277,13.3955056 12,13.3955056 C12.8063723,13.3955056 13.460923,12.7589583 13.460923,12 C13.460923,11.2410417 12.8063723,10.6044944 12,10.6044944 Z" id="Shape" fill="#243748" fill-rule="nonzero"></path>
        </g>
    </g>
</svg>