<?xml version="1.0" encoding="UTF-8"?>
<svg width="19px" height="21px" viewBox="0 0 19 21" version="1.1" xmlns="http://www.w3.org/2000/svg" xmlns:xlink="http://www.w3.org/1999/xlink">
    <!-- Generator: Sketch 55.2 (78181) - https://sketchapp.com -->
    <title>בחירת תאריך copy</title>
    <desc>Created with Sketch.</desc>
    <g id="UI" stroke="none" stroke-width="1" fill="none" fill-rule="evenodd">
        <g id="הוספת-לקוח" transform="translate(-1013.000000, -408.000000)">
            <g id="Group-32" transform="translate(775.000000, 109.000000)">
                <g id="בחירת-תאריך-copy" transform="translate(236.000000, 299.000000)">
                    <polygon id="Path" points="0 0 23 0 23 23 0 23"></polygon>
                    <path d="M18.2083333,2.875 L17.25,2.875 L17.25,0.958333333 L15.3333333,0.958333333 L15.3333333,2.875 L7.66666667,2.875 L7.66666667,0.958333333 L5.75,0.958333333 L5.75,2.875 L4.79166667,2.875 C3.72791667,2.875 2.88458333,3.7375 2.88458333,4.79166667 L2.875,18.2083333 C2.875,19.2625 3.72791667,20.125 4.79166667,20.125 L18.2083333,20.125 C19.2625,20.125 20.125,19.2625 20.125,18.2083333 L20.125,4.79166667 C20.125,3.7375 19.2625,2.875 18.2083333,2.875 Z M18.2083333,18.2083333 L4.79166667,18.2083333 L4.79166667,7.66666667 L18.2083333,7.66666667 L18.2083333,18.2083333 Z M6.70833333,9.58333333 L11.5,9.58333333 L11.5,14.375 L6.70833333,14.375 L6.70833333,9.58333333 Z" id="Shape" fill="#B1B1B1" fill-rule="nonzero"></path>
                </g>
            </g>
        </g>
    </g>
</svg>